<svg width="1814" height="715" viewBox="0 0 1814 715" fill="none" xmlns="http://www.w3.org/2000/svg">
<path d="M35.7216 56.267V12.0909H267.824V56.267H177.909V303H125.636V56.267H35.7216ZM341.716 175.159V303H290.295V12.0909H340.58V121.892H343.136C348.25 109.581 356.157 99.875 366.858 92.7727C377.653 85.5758 391.384 81.9773 408.051 81.9773C423.203 81.9773 436.413 85.1496 447.682 91.4943C458.951 97.839 467.663 107.119 473.818 119.335C480.068 131.551 483.193 146.466 483.193 164.08V303H431.773V172.034C431.773 157.356 427.985 145.945 420.409 137.801C412.928 129.562 402.417 125.443 388.875 125.443C379.784 125.443 371.64 127.432 364.443 131.409C357.341 135.292 351.754 140.926 347.682 148.312C343.705 155.699 341.716 164.648 341.716 175.159Z" fill="black"/>
<mask id="path-2-outside-1_0_1" maskUnits="userSpaceOnUse" x="496" y="6" width="893" height="306" fill="black">
<rect fill="white" x="496" y="6" width="893" height="306"/>
<path d="M607.621 306.261C585.746 306.261 566.854 301.716 550.945 292.625C535.13 283.439 522.962 270.466 514.439 253.705C505.916 236.848 501.655 217.009 501.655 194.188C501.655 171.744 505.916 152.047 514.439 135.097C523.056 118.051 535.083 104.794 550.518 95.3239C565.954 85.7595 584.089 80.9773 604.922 80.9773C618.369 80.9773 631.058 83.1553 642.99 87.5114C655.017 91.7727 665.623 98.4015 674.808 107.398C684.089 116.394 691.38 127.852 696.683 141.773C701.986 155.598 704.638 172.076 704.638 191.205V206.972H525.803V172.312H655.348C655.253 162.464 653.123 153.705 648.956 146.034C644.789 138.269 638.965 132.161 631.484 127.71C624.098 123.259 615.481 121.034 605.632 121.034C595.121 121.034 585.888 123.591 577.933 128.705C569.979 133.723 563.776 140.352 559.325 148.591C554.969 156.735 552.744 165.684 552.649 175.438V205.693C552.649 218.383 554.969 229.273 559.609 238.364C564.25 247.36 570.736 254.273 579.07 259.102C587.403 263.837 597.157 266.205 608.331 266.205C615.812 266.205 622.583 265.163 628.643 263.08C634.704 260.902 639.96 257.729 644.411 253.562C648.861 249.396 652.223 244.235 654.496 238.08L702.507 243.477C699.477 256.167 693.7 267.246 685.178 276.716C676.75 286.091 665.954 293.383 652.791 298.591C639.628 303.705 624.571 306.261 607.621 306.261ZM823.31 306.261C802.003 306.261 783.537 301.574 767.912 292.199C752.287 282.824 740.166 269.708 731.548 252.852C723.026 235.996 718.764 216.299 718.764 193.761C718.764 171.223 723.026 151.479 731.548 134.528C740.166 117.578 752.287 104.415 767.912 95.0398C783.537 85.6648 802.003 80.9773 823.31 80.9773C844.616 80.9773 863.082 85.6648 878.707 95.0398C894.332 104.415 906.406 117.578 914.929 134.528C923.546 151.479 927.855 171.223 927.855 193.761C927.855 216.299 923.546 235.996 914.929 252.852C906.406 269.708 894.332 282.824 878.707 292.199C863.082 301.574 844.616 306.261 823.31 306.261ZM823.594 265.068C835.147 265.068 844.806 261.896 852.571 255.551C860.336 249.112 866.113 240.494 869.901 229.699C873.783 218.903 875.724 206.877 875.724 193.619C875.724 180.267 873.783 168.193 869.901 157.398C866.113 146.508 860.336 137.843 852.571 131.403C844.806 124.964 835.147 121.744 823.594 121.744C811.757 121.744 801.908 124.964 794.048 131.403C786.283 137.843 780.459 146.508 776.577 157.398C772.789 168.193 770.895 180.267 770.895 193.619C770.895 206.877 772.789 218.903 776.577 229.699C780.459 240.494 786.283 249.112 794.048 255.551C801.908 261.896 811.757 265.068 823.594 265.068ZM1032.46 305.835C1015.32 305.835 999.983 301.432 986.442 292.625C972.9 283.818 962.199 271.034 954.339 254.273C946.48 237.511 942.55 217.152 942.55 193.193C942.55 168.951 946.527 148.496 954.482 131.83C962.531 115.068 973.374 102.426 987.01 93.9034C1000.65 85.286 1015.85 80.9773 1032.61 80.9773C1045.39 80.9773 1055.9 83.1553 1064.14 87.5114C1072.38 91.7727 1078.91 96.9337 1083.74 102.994C1088.57 108.96 1092.31 114.595 1094.96 119.898H1097.1V11.0909H1148.66V302H1098.09V267.625H1094.96C1092.31 272.928 1088.48 278.562 1083.46 284.528C1078.44 290.4 1071.81 295.419 1063.57 299.585C1055.33 303.752 1044.96 305.835 1032.46 305.835ZM1046.81 263.648C1057.7 263.648 1066.98 260.712 1074.65 254.841C1082.32 248.875 1088.15 240.589 1092.12 229.983C1096.1 219.377 1098.09 207.019 1098.09 192.909C1098.09 178.799 1096.1 166.536 1092.12 156.119C1088.24 145.703 1082.46 137.606 1074.79 131.83C1067.22 126.053 1057.89 123.165 1046.81 123.165C1035.35 123.165 1025.79 126.148 1018.12 132.114C1010.45 138.08 1004.67 146.318 1000.79 156.83C996.906 167.341 994.964 179.367 994.964 192.909C994.964 206.545 996.906 218.714 1000.79 229.415C1004.77 240.021 1010.59 248.402 1018.26 254.557C1026.03 260.617 1035.54 263.648 1046.81 263.648ZM1278.62 306.261C1257.32 306.261 1238.85 301.574 1223.22 292.199C1207.6 282.824 1195.48 269.708 1186.86 252.852C1178.34 235.996 1174.08 216.299 1174.08 193.761C1174.08 171.223 1178.34 151.479 1186.86 134.528C1195.48 117.578 1207.6 104.415 1223.22 95.0398C1238.85 85.6648 1257.32 80.9773 1278.62 80.9773C1299.93 80.9773 1318.39 85.6648 1334.02 95.0398C1349.64 104.415 1361.72 117.578 1370.24 134.528C1378.86 151.479 1383.17 171.223 1383.17 193.761C1383.17 216.299 1378.86 235.996 1370.24 252.852C1361.72 269.708 1349.64 282.824 1334.02 292.199C1318.39 301.574 1299.93 306.261 1278.62 306.261ZM1278.91 265.068C1290.46 265.068 1300.12 261.896 1307.88 255.551C1315.65 249.112 1321.43 240.494 1325.21 229.699C1329.1 218.903 1331.04 206.877 1331.04 193.619C1331.04 180.267 1329.1 168.193 1325.21 157.398C1321.43 146.508 1315.65 137.843 1307.88 131.403C1300.12 124.964 1290.46 121.744 1278.91 121.744C1267.07 121.744 1257.22 124.964 1249.36 131.403C1241.6 137.843 1235.77 146.508 1231.89 157.398C1228.1 168.193 1226.21 180.267 1226.21 193.619C1226.21 206.877 1228.1 218.903 1231.89 229.699C1235.77 240.494 1241.6 249.112 1249.36 255.551C1257.22 261.896 1267.07 265.068 1278.91 265.068Z"/>
</mask>
<path d="M550.945 292.625L548.433 296.949L548.449 296.957L548.464 296.966L550.945 292.625ZM514.439 253.705L509.977 255.961L509.982 255.971L514.439 253.705ZM514.439 135.097L509.977 132.841L509.972 132.851L514.439 135.097ZM550.518 95.3239L553.133 99.5857L553.143 99.5799L553.152 99.5741L550.518 95.3239ZM642.99 87.5114L641.275 92.2081L641.298 92.2163L641.32 92.2242L642.99 87.5114ZM674.808 107.398L671.31 110.97L671.319 110.979L671.328 110.988L674.808 107.398ZM696.683 141.773L692.011 143.553L692.015 143.563L696.683 141.773ZM704.638 206.972V211.972H709.638V206.972H704.638ZM525.803 206.972H520.803V211.972H525.803V206.972ZM525.803 172.312V167.312H520.803V172.312H525.803ZM655.348 172.312V177.312H660.396L660.348 172.264L655.348 172.312ZM648.956 146.034L644.55 148.398L644.556 148.409L644.562 148.421L648.956 146.034ZM631.484 127.71L628.904 131.993L628.916 132L628.928 132.007L631.484 127.71ZM577.933 128.705L580.601 132.933L580.619 132.922L580.637 132.91L577.933 128.705ZM559.325 148.591L554.926 146.214L554.921 146.223L554.916 146.233L559.325 148.591ZM552.649 175.438L547.649 175.389L547.649 175.413V175.438H552.649ZM559.609 238.364L555.156 240.637L555.161 240.646L555.166 240.656L559.609 238.364ZM579.07 259.102L576.562 263.428L576.581 263.439L576.6 263.45L579.07 259.102ZM628.643 263.08L630.269 267.808L630.302 267.797L630.334 267.785L628.643 263.08ZM644.411 253.562L640.993 249.912L644.411 253.562ZM654.496 238.08L655.054 233.111L651.162 232.673L649.805 236.348L654.496 238.08ZM702.507 243.477L707.37 244.639L708.683 239.14L703.066 238.509L702.507 243.477ZM685.178 276.716L681.461 273.371L681.459 273.373L685.178 276.716ZM652.791 298.591L654.602 303.252L654.616 303.246L654.631 303.24L652.791 298.591ZM607.621 306.261V301.261C586.447 301.261 568.445 296.866 553.425 288.284L550.945 292.625L548.464 296.966C565.263 306.566 585.045 311.261 607.621 311.261V306.261ZM550.945 292.625L553.456 288.301C538.499 279.614 526.995 267.366 518.896 251.438L514.439 253.705L509.982 255.971C518.928 273.565 531.761 287.265 548.433 296.949L550.945 292.625ZM514.439 253.705L518.901 251.448C510.798 235.423 506.655 216.387 506.655 194.188H501.655H496.655C496.655 217.632 501.034 238.274 509.977 255.961L514.439 253.705ZM501.655 194.188H506.655C506.655 172.382 510.792 153.48 518.906 137.343L514.439 135.097L509.972 132.851C501.04 150.615 496.655 171.106 496.655 194.188H501.655ZM514.439 135.097L518.901 137.352C527.124 121.087 538.531 108.544 553.133 99.5857L550.518 95.3239L547.904 91.062C531.634 101.043 518.988 115.016 509.977 132.841L514.439 135.097ZM550.518 95.3239L553.152 99.5741C567.686 90.5686 584.879 85.9773 604.922 85.9773V80.9773V75.9773C583.298 75.9773 564.223 80.9503 547.885 91.0736L550.518 95.3239ZM604.922 80.9773V85.9773C617.819 85.9773 629.925 88.0642 641.275 92.2081L642.99 87.5114L644.705 82.8146C632.192 78.2464 618.919 75.9773 604.922 75.9773V80.9773ZM642.99 87.5114L641.32 92.2242C652.656 96.2409 662.639 102.478 671.31 110.97L674.808 107.398L678.307 103.826C668.606 94.3247 657.377 87.3045 644.66 82.7985L642.99 87.5114ZM674.808 107.398L671.328 110.988C680.009 119.403 686.928 130.212 692.011 143.553L696.683 141.773L701.356 139.993C695.832 125.493 688.168 113.385 678.288 103.808L674.808 107.398ZM696.683 141.773L692.015 143.563C697.045 156.678 699.638 172.518 699.638 191.205H704.638H709.638C709.638 171.634 706.927 154.519 701.352 139.982L696.683 141.773ZM704.638 191.205H699.638V206.972H704.638H709.638V191.205H704.638ZM704.638 206.972V201.972H525.803V206.972V211.972H704.638V206.972ZM525.803 206.972H530.803V172.312H525.803H520.803V206.972H525.803ZM525.803 172.312V177.312H655.348V172.312V167.312H525.803V172.312ZM655.348 172.312L660.348 172.264C660.246 161.705 657.954 152.124 653.35 143.647L648.956 146.034L644.562 148.421C648.291 155.285 650.26 163.223 650.348 172.361L655.348 172.312ZM648.956 146.034L653.362 143.67C648.771 135.115 642.313 128.334 634.041 123.413L631.484 127.71L628.928 132.007C635.618 135.988 640.807 141.423 644.55 148.398L648.956 146.034ZM631.484 127.71L634.065 123.428C625.794 118.444 616.258 116.034 605.632 116.034V121.034V126.034C614.703 126.034 622.402 128.075 628.904 131.993L631.484 127.71ZM605.632 121.034V116.034C594.273 116.034 584.079 118.81 575.229 124.499L577.933 128.705L580.637 132.91C587.697 128.372 595.969 126.034 605.632 126.034V121.034ZM577.933 128.705L575.265 124.476C566.587 129.951 559.787 137.216 554.926 146.214L559.325 148.591L563.724 150.967C567.765 143.488 573.37 137.496 580.601 132.933L577.933 128.705ZM559.325 148.591L554.916 146.233C550.159 155.128 547.751 164.876 547.649 175.389L552.649 175.438L557.649 175.486C557.736 166.492 559.78 158.342 563.734 150.949L559.325 148.591ZM552.649 175.438H547.649V205.693H552.649H557.649V175.438H552.649ZM552.649 205.693H547.649C547.649 218.984 550.08 230.691 555.156 240.637L559.609 238.364L564.063 236.091C559.859 227.854 557.649 217.781 557.649 205.693H552.649ZM559.609 238.364L555.166 240.656C560.22 250.456 567.359 258.095 576.562 263.428L579.07 259.102L581.577 254.776C574.113 250.451 568.279 244.264 564.053 236.072L559.609 238.364ZM579.07 259.102L576.6 263.45C585.802 268.678 596.436 271.205 608.331 271.205V266.205V261.205C597.878 261.205 589.003 258.996 581.54 254.755L579.07 259.102ZM608.331 266.205V271.205C616.275 271.205 623.606 270.098 630.269 267.808L628.643 263.08L627.018 258.351C621.56 260.227 615.349 261.205 608.331 261.205V266.205ZM628.643 263.08L630.334 267.785C637 265.39 642.852 261.871 647.828 257.213L644.411 253.562L640.993 249.912C637.068 253.587 632.409 256.413 626.952 258.374L628.643 263.08ZM644.411 253.562L647.828 257.213C652.889 252.474 656.665 246.64 659.186 239.811L654.496 238.08L649.805 236.348C647.781 241.83 644.834 246.317 640.993 249.912L644.411 253.562ZM654.496 238.08L653.937 243.048L701.948 248.446L702.507 243.477L703.066 238.509L655.054 233.111L654.496 238.08ZM702.507 243.477L697.644 242.316C694.803 254.213 689.411 264.537 681.461 273.371L685.178 276.716L688.894 280.061C697.989 269.955 704.151 258.12 707.37 244.639L702.507 243.477ZM685.178 276.716L681.459 273.373C673.609 282.106 663.485 288.982 650.952 293.942L652.791 298.591L654.631 303.24C668.423 297.783 679.891 290.076 688.896 280.059L685.178 276.716ZM652.791 298.591L650.981 293.93C638.498 298.78 624.073 301.261 607.621 301.261V306.261V311.261C625.07 311.261 640.759 308.629 654.602 303.252L652.791 298.591ZM767.912 292.199L765.339 296.486L767.912 292.199ZM731.548 252.852L727.086 255.108L727.091 255.118L727.096 255.128L731.548 252.852ZM731.548 134.528L727.091 132.262L727.086 132.272L727.081 132.282L731.548 134.528ZM767.912 95.0398L770.484 99.3272L767.912 95.0398ZM878.707 95.0398L876.135 99.3272L878.707 95.0398ZM914.929 134.528L910.462 136.774L910.467 136.784L910.472 136.794L914.929 134.528ZM914.929 252.852L910.477 250.576L910.472 250.586L910.467 250.596L914.929 252.852ZM878.707 292.199L876.135 287.911L878.707 292.199ZM852.571 255.551L855.735 259.423L855.749 259.412L855.763 259.4L852.571 255.551ZM869.901 229.699L865.196 228.007L865.189 228.025L865.183 228.043L869.901 229.699ZM869.901 157.398L865.178 159.04L865.187 159.065L865.196 159.09L869.901 157.398ZM852.571 131.403L855.763 127.555L852.571 131.403ZM794.048 131.403L790.88 127.536L790.868 127.545L790.857 127.555L794.048 131.403ZM776.577 157.398L771.867 155.719L771.863 155.73L771.859 155.742L776.577 157.398ZM776.577 229.699L771.859 231.354L771.865 231.373L771.872 231.391L776.577 229.699ZM794.048 255.551L790.857 259.4L790.882 259.421L790.908 259.442L794.048 255.551ZM823.31 306.261V301.261C802.754 301.261 785.209 296.746 770.484 287.911L767.912 292.199L765.339 296.486C781.865 306.401 801.252 311.261 823.31 311.261V306.261ZM767.912 292.199L770.484 287.911C755.694 279.037 744.209 266.633 736 250.576L731.548 252.852L727.096 255.128C736.122 272.783 748.88 286.611 765.339 296.486L767.912 292.199ZM731.548 252.852L736.01 250.596C727.903 234.562 723.764 215.666 723.764 193.761H718.764H713.764C713.764 216.933 718.148 237.43 727.086 255.108L731.548 252.852ZM718.764 193.761H723.764C723.764 171.858 727.903 152.909 736.015 136.774L731.548 134.528L727.081 132.282C718.148 150.049 713.764 170.589 713.764 193.761H718.764ZM731.548 134.528L736.005 136.794C744.216 120.643 755.701 108.197 770.484 99.3272L767.912 95.0398L765.339 90.7523C748.873 100.632 736.115 114.513 727.091 132.262L731.548 134.528ZM767.912 95.0398L770.484 99.3272C785.209 90.4924 802.754 85.9773 823.31 85.9773V80.9773V75.9773C801.252 75.9773 781.865 80.8371 765.339 90.7523L767.912 95.0398ZM823.31 80.9773V85.9773C843.866 85.9773 861.41 90.4924 876.135 99.3272L878.707 95.0398L881.28 90.7523C864.755 80.8371 845.367 75.9773 823.31 75.9773V80.9773ZM878.707 95.0398L876.135 99.3272C890.913 108.194 902.346 120.633 910.462 136.774L914.929 134.528L919.396 132.282C910.466 114.522 897.752 100.635 881.28 90.7523L878.707 95.0398ZM914.929 134.528L910.472 136.794C918.672 152.924 922.855 171.866 922.855 193.761H927.855H932.855C932.855 170.581 928.421 150.034 919.386 132.262L914.929 134.528ZM927.855 193.761H922.855C922.855 215.658 918.672 234.547 910.477 250.576L914.929 252.852L919.381 255.128C928.421 237.445 932.855 216.941 932.855 193.761H927.855ZM914.929 252.852L910.467 250.596C902.353 266.643 890.92 279.04 876.135 287.911L878.707 292.199L881.28 296.486C897.744 286.608 910.459 272.774 919.391 255.108L914.929 252.852ZM878.707 292.199L876.135 287.911C861.41 296.746 843.866 301.261 823.31 301.261V306.261V311.261C845.367 311.261 864.755 306.401 881.28 296.486L878.707 292.199ZM823.594 265.068V270.068C836.115 270.068 846.943 266.606 855.735 259.423L852.571 255.551L849.407 251.679C842.668 257.186 834.178 260.068 823.594 260.068V265.068ZM852.571 255.551L855.763 259.4C864.316 252.307 870.571 242.888 874.619 231.354L869.901 229.699L865.183 228.043C861.654 238.1 856.356 245.917 849.379 251.702L852.571 255.551ZM869.901 229.699L874.606 231.391C878.711 219.975 880.724 207.365 880.724 193.619H875.724H870.724C870.724 206.388 868.855 217.831 865.196 228.007L869.901 229.699ZM875.724 193.619H880.724C880.724 179.783 878.712 167.125 874.606 155.706L869.901 157.398L865.196 159.09C868.854 169.262 870.724 180.751 870.724 193.619H875.724ZM869.901 157.398L874.623 155.755C870.579 144.129 864.326 134.655 855.763 127.555L852.571 131.403L849.379 135.252C856.347 141.03 861.646 148.886 865.178 159.04L869.901 157.398ZM852.571 131.403L855.763 127.555C846.972 120.264 836.133 116.744 823.594 116.744V121.744V126.744C834.16 126.744 842.64 129.664 849.379 135.252L852.571 131.403ZM823.594 121.744V116.744C810.801 116.744 799.777 120.247 790.88 127.536L794.048 131.403L797.217 135.271C804.04 129.681 812.712 126.744 823.594 126.744V121.744ZM794.048 131.403L790.857 127.555C782.304 134.647 776.007 144.108 771.867 155.719L776.577 157.398L781.286 159.077C784.912 148.907 790.263 141.038 797.24 135.252L794.048 131.403ZM776.577 157.398L771.859 155.742C767.856 167.15 765.895 179.796 765.895 193.619H770.895H775.895C775.895 180.739 777.722 169.236 781.295 159.053L776.577 157.398ZM770.895 193.619H765.895C765.895 207.353 767.857 219.95 771.859 231.354L776.577 229.699L781.295 228.043C777.721 217.857 775.895 206.401 775.895 193.619H770.895ZM776.577 229.699L771.872 231.391C776.015 242.91 782.313 252.315 790.857 259.4L794.048 255.551L797.24 251.702C790.253 245.908 784.904 238.079 781.282 228.007L776.577 229.699ZM794.048 255.551L790.908 259.442C799.805 266.623 810.819 270.068 823.594 270.068V265.068V260.068C812.694 260.068 804.012 257.168 797.189 251.661L794.048 255.551ZM986.442 292.625L983.716 296.817L986.442 292.625ZM954.339 254.273L958.866 252.15L954.339 254.273ZM954.482 131.83L949.974 129.665L949.969 129.676L954.482 131.83ZM987.01 93.9034L989.66 98.1434L989.67 98.1368L989.681 98.1301L987.01 93.9034ZM1064.14 87.5114L1061.8 91.9315L1061.82 91.9421L1061.84 91.9524L1064.14 87.5114ZM1083.74 102.994L1079.83 106.11L1079.84 106.125L1079.86 106.14L1083.74 102.994ZM1094.96 119.898L1090.49 122.134L1091.87 124.898H1094.96V119.898ZM1097.1 119.898V124.898H1102.1V119.898H1097.1ZM1097.1 11.0909V6.0909H1092.1V11.0909H1097.1ZM1148.66 11.0909H1153.66V6.0909H1148.66V11.0909ZM1148.66 302V307H1153.66V302H1148.66ZM1098.09 302H1093.09V307H1098.09V302ZM1098.09 267.625H1103.09V262.625H1098.09V267.625ZM1094.96 267.625V262.625H1091.87L1090.49 265.389L1094.96 267.625ZM1083.46 284.528L1087.26 287.777L1087.27 287.762L1087.28 287.747L1083.46 284.528ZM1063.57 299.585L1065.83 304.047L1063.57 299.585ZM1074.65 254.841L1077.69 258.811L1077.71 258.8L1077.72 258.788L1074.65 254.841ZM1092.12 229.983L1087.44 228.227L1092.12 229.983ZM1092.12 156.119L1087.44 157.866L1087.45 157.884L1087.45 157.903L1092.12 156.119ZM1074.79 131.83L1071.76 135.806L1071.77 135.815L1071.79 135.824L1074.79 131.83ZM1018.12 132.114L1015.05 128.167L1018.12 132.114ZM1000.79 156.83L996.098 155.097L1000.79 156.83ZM1000.79 229.415L996.088 231.12L996.097 231.145L996.107 231.17L1000.79 229.415ZM1018.26 254.557L1015.13 258.456L1015.16 258.478L1015.18 258.498L1018.26 254.557ZM1032.46 305.835V300.835C1016.23 300.835 1001.85 296.68 989.168 288.433L986.442 292.625L983.716 296.817C998.119 306.184 1014.42 310.835 1032.46 310.835V305.835ZM986.442 292.625L989.168 288.433C976.516 280.206 966.39 268.193 958.866 252.15L954.339 254.273L949.812 256.396C958.009 273.875 969.284 287.431 983.716 296.817L986.442 292.625ZM954.339 254.273L958.866 252.15C951.396 236.218 947.55 216.625 947.55 193.193H942.55H937.55C937.55 217.678 941.564 238.805 949.812 256.396L954.339 254.273ZM942.55 193.193H947.55C947.55 169.473 951.444 149.801 958.994 133.983L954.482 131.83L949.969 129.676C941.61 147.191 937.55 168.429 937.55 193.193H942.55ZM954.482 131.83L958.989 133.994C966.693 117.95 976.946 106.09 989.66 98.1434L987.01 93.9034L984.36 89.6634C969.801 98.7626 958.368 112.186 949.974 129.665L954.482 131.83ZM987.01 93.9034L989.681 98.1301C1002.49 90.0382 1016.75 85.9773 1032.61 85.9773V80.9773V75.9773C1014.94 75.9773 998.807 80.5337 984.339 89.6767L987.01 93.9034ZM1032.61 80.9773V85.9773C1044.86 85.9773 1054.5 88.0712 1061.8 91.9315L1064.14 87.5114L1066.48 83.0912C1057.3 78.2394 1045.92 75.9773 1032.61 75.9773V80.9773ZM1064.14 87.5114L1061.84 91.9524C1069.58 95.9531 1075.52 100.697 1079.83 106.11L1083.74 102.994L1087.65 99.8783C1082.31 93.17 1075.18 87.5923 1066.44 83.0703L1064.14 87.5114ZM1083.74 102.994L1079.86 106.14C1084.52 111.903 1088.04 117.233 1090.49 122.134L1094.96 119.898L1099.44 117.662C1096.58 111.957 1092.62 106.018 1087.63 99.8483L1083.74 102.994ZM1094.96 119.898V124.898H1097.1V119.898V114.898H1094.96V119.898ZM1097.1 119.898H1102.1V11.0909H1097.1H1092.1V119.898H1097.1ZM1097.1 11.0909V16.0909H1148.66V11.0909V6.0909H1097.1V11.0909ZM1148.66 11.0909H1143.66V302H1148.66H1153.66V11.0909H1148.66ZM1148.66 302V297H1098.09V302V307H1148.66V302ZM1098.09 302H1103.09V267.625H1098.09H1093.09V302H1098.09ZM1098.09 267.625V262.625H1094.96V267.625V272.625H1098.09V267.625ZM1094.96 267.625L1090.49 265.389C1088.06 270.25 1084.47 275.556 1079.63 281.31L1083.46 284.528L1087.28 287.747C1092.48 281.569 1096.56 275.606 1099.44 269.861L1094.96 267.625ZM1083.46 284.528L1079.66 281.28C1075.14 286.56 1069.08 291.198 1061.32 295.123L1063.57 299.585L1065.83 304.047C1074.54 299.639 1081.74 294.239 1087.26 287.777L1083.46 284.528ZM1063.57 299.585L1061.32 295.123C1053.98 298.834 1044.44 300.835 1032.46 300.835V305.835V310.835C1045.48 310.835 1056.69 308.67 1065.83 304.047L1063.57 299.585ZM1046.81 263.648V268.648C1058.65 268.648 1069.04 265.434 1077.69 258.811L1074.65 254.841L1071.61 250.871C1064.92 255.99 1056.75 258.648 1046.81 258.648V263.648ZM1074.65 254.841L1077.72 258.788C1086.24 252.166 1092.56 243.064 1096.81 231.739L1092.12 229.983L1087.44 228.227C1083.73 238.114 1078.41 245.584 1071.58 250.894L1074.65 254.841ZM1092.12 229.983L1096.81 231.739C1101.04 220.452 1103.09 207.477 1103.09 192.909H1098.09H1093.09C1093.09 206.561 1091.16 218.302 1087.44 228.227L1092.12 229.983ZM1098.09 192.909H1103.09C1103.09 178.345 1101.04 165.451 1096.79 154.336L1092.12 156.119L1087.45 157.903C1091.16 167.621 1093.09 179.254 1093.09 192.909H1098.09ZM1092.12 156.119L1096.81 154.373C1092.65 143.206 1086.35 134.272 1077.8 127.835L1074.79 131.83L1071.79 135.824C1078.58 140.94 1083.84 148.199 1087.44 157.866L1092.12 156.119ZM1074.79 131.83L1077.83 127.854C1069.24 121.308 1058.8 118.165 1046.81 118.165V123.165V128.165C1056.98 128.165 1065.19 130.798 1071.76 135.806L1074.79 131.83ZM1046.81 123.165V118.165C1034.45 118.165 1023.75 121.401 1015.05 128.167L1018.12 132.114L1021.19 136.06C1027.83 130.894 1036.26 128.165 1046.81 128.165V123.165ZM1018.12 132.114L1015.05 128.167C1006.53 134.789 1000.25 143.848 996.098 155.097L1000.79 156.83L1005.48 158.562C1009.09 148.789 1014.36 141.37 1021.19 136.06L1018.12 132.114ZM1000.79 156.83L996.098 155.097C991.973 166.265 989.964 178.896 989.964 192.909H994.964H999.964C999.964 179.839 1001.84 168.417 1005.48 158.562L1000.79 156.83ZM994.964 192.909H989.964C989.964 207.015 991.972 219.777 996.088 231.12L1000.79 229.415L1005.49 227.709C1001.84 217.652 999.964 206.076 999.964 192.909H994.964ZM1000.79 229.415L996.107 231.17C1000.35 242.488 1006.66 251.658 1015.13 258.456L1018.26 254.557L1021.39 250.657C1014.52 245.145 1009.18 237.554 1005.47 227.659L1000.79 229.415ZM1018.26 254.557L1015.18 258.498C1023.95 265.342 1034.6 268.648 1046.81 268.648V263.648V258.648C1036.49 258.648 1028.1 255.893 1021.34 250.615L1018.26 254.557ZM1223.22 292.199L1220.65 296.486L1223.22 292.199ZM1186.86 252.852L1182.4 255.108L1182.4 255.118L1182.41 255.128L1186.86 252.852ZM1186.86 134.528L1182.4 132.262L1182.4 132.272L1182.39 132.282L1186.86 134.528ZM1223.22 95.0398L1225.8 99.3272L1223.22 95.0398ZM1334.02 95.0398L1331.45 99.3272L1334.02 95.0398ZM1370.24 134.528L1365.77 136.774L1365.78 136.784L1365.78 136.794L1370.24 134.528ZM1370.24 252.852L1365.79 250.576L1365.78 250.586L1365.78 250.596L1370.24 252.852ZM1334.02 292.199L1331.45 287.911L1334.02 292.199ZM1307.88 255.551L1311.05 259.423L1311.06 259.412L1311.08 259.4L1307.88 255.551ZM1325.21 229.699L1320.51 228.007L1320.5 228.025L1320.5 228.043L1325.21 229.699ZM1325.21 157.398L1320.49 159.04L1320.5 159.065L1320.51 159.09L1325.21 157.398ZM1307.88 131.403L1311.08 127.555L1307.88 131.403ZM1249.36 131.403L1246.19 127.536L1246.18 127.545L1246.17 127.555L1249.36 131.403ZM1231.89 157.398L1227.18 155.719L1227.18 155.73L1227.17 155.742L1231.89 157.398ZM1231.89 229.699L1227.17 231.354L1227.18 231.373L1227.18 231.391L1231.89 229.699ZM1249.36 255.551L1246.17 259.4L1246.19 259.421L1246.22 259.442L1249.36 255.551ZM1278.62 306.261V301.261C1258.07 301.261 1240.52 296.746 1225.8 287.911L1223.22 292.199L1220.65 296.486C1237.18 306.401 1256.56 311.261 1278.62 311.261V306.261ZM1223.22 292.199L1225.8 287.911C1211.01 279.037 1199.52 266.633 1191.31 250.576L1186.86 252.852L1182.41 255.128C1191.43 272.783 1204.19 286.611 1220.65 296.486L1223.22 292.199ZM1186.86 252.852L1191.32 250.596C1183.22 234.562 1179.08 215.666 1179.08 193.761H1174.08H1169.08C1169.08 216.933 1173.46 237.43 1182.4 255.108L1186.86 252.852ZM1174.08 193.761H1179.08C1179.08 171.858 1183.22 152.909 1191.33 136.774L1186.86 134.528L1182.39 132.282C1173.46 150.049 1169.08 170.589 1169.08 193.761H1174.08ZM1186.86 134.528L1191.32 136.794C1199.53 120.643 1211.01 108.197 1225.8 99.3272L1223.22 95.0398L1220.65 90.7523C1204.19 100.632 1191.43 114.513 1182.4 132.262L1186.86 134.528ZM1223.22 95.0398L1225.8 99.3272C1240.52 90.4924 1258.07 85.9773 1278.62 85.9773V80.9773V75.9773C1256.56 75.9773 1237.18 80.8371 1220.65 90.7523L1223.22 95.0398ZM1278.62 80.9773V85.9773C1299.18 85.9773 1316.72 90.4924 1331.45 99.3272L1334.02 95.0398L1336.59 90.7523C1320.07 80.8371 1300.68 75.9773 1278.62 75.9773V80.9773ZM1334.02 95.0398L1331.45 99.3272C1346.23 108.194 1357.66 120.633 1365.77 136.774L1370.24 134.528L1374.71 132.282C1365.78 114.522 1353.06 100.635 1336.59 90.7523L1334.02 95.0398ZM1370.24 134.528L1365.78 136.794C1373.98 152.924 1378.17 171.866 1378.17 193.761H1383.17H1388.17C1388.17 170.581 1383.73 150.034 1374.7 132.262L1370.24 134.528ZM1383.17 193.761H1378.17C1378.17 215.658 1373.98 234.547 1365.79 250.576L1370.24 252.852L1374.69 255.128C1383.73 237.445 1388.17 216.941 1388.17 193.761H1383.17ZM1370.24 252.852L1365.78 250.596C1357.67 266.643 1346.23 279.04 1331.45 287.911L1334.02 292.199L1336.59 296.486C1353.06 286.608 1365.77 272.774 1374.7 255.108L1370.24 252.852ZM1334.02 292.199L1331.45 287.911C1316.72 296.746 1299.18 301.261 1278.62 301.261V306.261V311.261C1300.68 311.261 1320.07 306.401 1336.59 296.486L1334.02 292.199ZM1278.91 265.068V270.068C1291.43 270.068 1302.26 266.606 1311.05 259.423L1307.88 255.551L1304.72 251.679C1297.98 257.186 1289.49 260.068 1278.91 260.068V265.068ZM1307.88 255.551L1311.08 259.4C1319.63 252.307 1325.88 242.888 1329.93 231.354L1325.21 229.699L1320.5 228.043C1316.97 238.1 1311.67 245.917 1304.69 251.702L1307.88 255.551ZM1325.21 229.699L1329.92 231.391C1334.02 219.975 1336.04 207.365 1336.04 193.619H1331.04H1326.04C1326.04 206.388 1324.17 217.831 1320.51 228.007L1325.21 229.699ZM1331.04 193.619H1336.04C1336.04 179.783 1334.02 167.125 1329.92 155.706L1325.21 157.398L1320.51 159.09C1324.17 169.262 1326.04 180.751 1326.04 193.619H1331.04ZM1325.21 157.398L1329.94 155.755C1325.89 144.129 1319.64 134.655 1311.08 127.555L1307.88 131.403L1304.69 135.252C1311.66 141.03 1316.96 148.886 1320.49 159.04L1325.21 157.398ZM1307.88 131.403L1311.08 127.555C1302.28 120.264 1291.45 116.744 1278.91 116.744V121.744V126.744C1289.47 126.744 1297.95 129.664 1304.69 135.252L1307.88 131.403ZM1278.91 121.744V116.744C1266.11 116.744 1255.09 120.247 1246.19 127.536L1249.36 131.403L1252.53 135.271C1259.35 129.681 1268.02 126.744 1278.91 126.744V121.744ZM1249.36 131.403L1246.17 127.555C1237.62 134.647 1231.32 144.108 1227.18 155.719L1231.89 157.398L1236.6 159.077C1240.22 148.907 1245.58 141.038 1252.55 135.252L1249.36 131.403ZM1231.89 157.398L1227.17 155.742C1223.17 167.15 1221.21 179.796 1221.21 193.619H1226.21H1231.21C1231.21 180.739 1233.03 169.236 1236.61 159.053L1231.89 157.398ZM1226.21 193.619H1221.21C1221.21 207.353 1223.17 219.95 1227.17 231.354L1231.89 229.699L1236.61 228.043C1233.03 217.857 1231.21 206.401 1231.21 193.619H1226.21ZM1231.89 229.699L1227.18 231.391C1231.33 242.91 1237.63 252.315 1246.17 259.4L1249.36 255.551L1252.55 251.702C1245.57 245.908 1240.22 238.079 1236.59 228.007L1231.89 229.699ZM1249.36 255.551L1246.22 259.442C1255.12 266.623 1266.13 270.068 1278.91 270.068V265.068V260.068C1268.01 260.068 1259.32 257.168 1252.5 251.661L1249.36 255.551Z" fill="white" mask="url(#path-2-outside-1_0_1)"/>
<path d="M1403.73 303V84.8182H1453.59V121.182H1455.86C1459.84 108.587 1466.66 98.8807 1476.32 92.0625C1486.07 85.1496 1497.2 81.6932 1509.7 81.6932C1512.54 81.6932 1515.71 81.8352 1519.22 82.1193C1522.81 82.3087 1525.8 82.6401 1528.16 83.1136V130.415C1525.99 129.657 1522.53 128.994 1517.8 128.426C1513.16 127.763 1508.66 127.432 1504.3 127.432C1494.93 127.432 1486.5 129.468 1479.02 133.54C1471.63 137.517 1465.81 143.057 1461.55 150.159C1457.28 157.261 1455.15 165.453 1455.15 174.733V303H1403.73ZM1601.2 307.403C1587.38 307.403 1574.93 304.941 1563.85 300.017C1552.86 294.998 1544.15 287.612 1537.71 277.858C1531.37 268.104 1528.19 256.078 1528.19 241.778C1528.19 229.468 1530.47 219.288 1535.01 211.239C1539.56 203.189 1545.76 196.75 1553.62 191.92C1561.48 187.091 1570.33 183.445 1580.18 180.983C1590.13 178.426 1600.4 176.58 1611.01 175.443C1623.79 174.117 1634.16 172.934 1642.11 171.892C1650.07 170.756 1655.84 169.051 1659.44 166.778C1663.14 164.411 1664.98 160.765 1664.98 155.841V154.989C1664.98 144.288 1661.81 136.002 1655.47 130.131C1649.12 124.259 1639.98 121.324 1628.05 121.324C1615.46 121.324 1605.47 124.07 1598.08 129.562C1590.79 135.055 1585.86 141.542 1583.31 149.023L1535.3 142.205C1539.08 128.947 1545.33 117.867 1554.05 108.966C1562.76 99.9697 1573.41 93.2462 1586.01 88.7955C1598.6 84.25 1612.52 81.9773 1627.77 81.9773C1638.28 81.9773 1648.74 83.2083 1659.16 85.6705C1669.58 88.1326 1679.09 92.2045 1687.71 97.8864C1696.33 103.473 1703.24 111.097 1708.45 120.756C1713.75 130.415 1716.4 142.489 1716.4 156.977V303H1666.97V273.028H1665.27C1662.14 279.089 1657.74 284.771 1652.06 290.074C1646.47 295.282 1639.41 299.496 1630.89 302.716C1622.46 305.841 1612.57 307.403 1601.2 307.403ZM1614.56 269.619C1624.88 269.619 1633.83 267.583 1641.4 263.511C1648.98 259.345 1654.8 253.852 1658.88 247.034C1663.04 240.216 1665.12 232.782 1665.12 224.733V199.023C1663.52 200.348 1660.77 201.58 1656.89 202.716C1653.1 203.852 1648.84 204.847 1644.1 205.699C1639.37 206.551 1634.68 207.309 1630.04 207.972C1625.4 208.634 1621.38 209.203 1617.97 209.676C1610.3 210.718 1603.43 212.422 1597.37 214.79C1591.31 217.157 1586.53 220.472 1583.02 224.733C1579.52 228.9 1577.77 234.297 1577.77 240.926C1577.77 250.396 1581.22 257.545 1588.14 262.375C1595.05 267.205 1603.86 269.619 1614.56 269.619Z" fill="black"/>
<mask id="path-5-outside-2_0_1" maskUnits="userSpaceOnUse" x="991" y="337" width="441" height="306" fill="black">
<rect fill="white" x="991" y="337" width="441" height="306"/>
<path d="M996.498 633V342.091H1105.59C1127.94 342.091 1146.69 345.973 1161.84 353.739C1177.09 361.504 1188.59 372.394 1196.36 386.409C1204.22 400.33 1208.15 416.57 1208.15 435.131C1208.15 453.786 1204.17 469.979 1196.21 483.71C1188.35 497.347 1176.75 507.905 1161.41 515.386C1146.07 522.773 1127.23 526.466 1104.88 526.466H1027.18V482.716H1097.78C1110.84 482.716 1121.55 480.917 1129.88 477.318C1138.21 473.625 1144.37 468.275 1148.34 461.267C1152.42 454.165 1154.45 445.453 1154.45 435.131C1154.45 424.809 1152.42 416.002 1148.34 408.71C1144.27 401.324 1138.07 395.737 1129.74 391.949C1121.4 388.066 1110.66 386.125 1097.49 386.125H1049.2V633H996.498ZM1146.78 501.182L1218.8 633H1159.99L1089.25 501.182H1146.78ZM1322.43 637.261C1301.12 637.261 1282.65 632.574 1267.03 623.199C1251.4 613.824 1239.28 600.708 1230.67 583.852C1222.14 566.996 1217.88 547.299 1217.88 524.761C1217.88 502.223 1222.14 482.479 1230.67 465.528C1239.28 448.578 1251.4 435.415 1267.03 426.04C1282.65 416.665 1301.12 411.977 1322.43 411.977C1343.73 411.977 1362.2 416.665 1377.82 426.04C1393.45 435.415 1405.52 448.578 1414.05 465.528C1422.66 482.479 1426.97 502.223 1426.97 524.761C1426.97 547.299 1422.66 566.996 1414.05 583.852C1405.52 600.708 1393.45 613.824 1377.82 623.199C1362.2 632.574 1343.73 637.261 1322.43 637.261ZM1322.71 596.068C1334.26 596.068 1343.92 592.896 1351.69 586.551C1359.45 580.112 1365.23 571.494 1369.02 560.699C1372.9 549.903 1374.84 537.877 1374.84 524.619C1374.84 511.267 1372.9 499.193 1369.02 488.398C1365.23 477.508 1359.45 468.843 1351.69 462.403C1343.92 455.964 1334.26 452.744 1322.71 452.744C1310.87 452.744 1301.03 455.964 1293.17 462.403C1285.4 468.843 1279.58 477.508 1275.69 488.398C1271.91 499.193 1270.01 511.267 1270.01 524.619C1270.01 537.877 1271.91 549.903 1275.69 560.699C1279.58 571.494 1285.4 580.112 1293.17 586.551C1301.03 592.896 1310.87 596.068 1322.71 596.068Z"/>
</mask>
<path d="M996.498 633H991.498V638H996.498V633ZM996.498 342.091V337.091H991.498V342.091H996.498ZM1161.84 353.739L1159.56 358.188L1159.57 358.194L1161.84 353.739ZM1196.36 386.409L1191.98 388.832L1191.99 388.85L1192 388.867L1196.36 386.409ZM1196.21 483.71L1191.89 481.204L1191.88 481.213L1196.21 483.71ZM1161.41 515.386L1163.58 519.891L1163.59 519.886L1163.6 519.88L1161.41 515.386ZM1027.18 526.466H1022.18V531.466H1027.18V526.466ZM1027.18 482.716V477.716H1022.18V482.716H1027.18ZM1129.88 477.318L1131.86 481.908L1131.88 481.899L1131.9 481.889L1129.88 477.318ZM1148.34 461.267L1144.01 458.78L1144 458.79L1144 458.799L1148.34 461.267ZM1148.34 408.71L1143.97 411.124L1143.97 411.136L1143.98 411.148L1148.34 408.71ZM1129.74 391.949L1127.62 396.481L1127.65 396.491L1127.67 396.501L1129.74 391.949ZM1049.2 386.125V381.125H1044.2V386.125H1049.2ZM1049.2 633V638H1054.2V633H1049.2ZM1146.78 501.182L1151.17 498.785L1149.75 496.182H1146.78V501.182ZM1218.8 633V638H1227.23L1223.19 630.603L1218.8 633ZM1159.99 633L1155.59 635.364L1157 638H1159.99V633ZM1089.25 501.182V496.182H1080.9L1084.85 503.546L1089.25 501.182ZM996.498 633H1001.5V342.091H996.498H991.498V633H996.498ZM996.498 342.091V347.091H1105.59V342.091V337.091H996.498V342.091ZM1105.59 342.091V347.091C1127.38 347.091 1145.3 350.88 1159.56 358.188L1161.84 353.739L1164.12 349.289C1148.08 341.067 1128.49 337.091 1105.59 337.091V342.091ZM1161.84 353.739L1159.57 358.194C1173.99 365.539 1184.73 375.749 1191.98 388.832L1196.36 386.409L1200.73 383.986C1192.45 369.038 1180.18 357.469 1164.11 349.283L1161.84 353.739ZM1196.36 386.409L1192 388.867C1199.37 401.925 1203.15 417.291 1203.15 435.131H1208.15H1213.15C1213.15 415.849 1209.06 398.734 1200.71 383.951L1196.36 386.409ZM1208.15 435.131H1203.15C1203.15 453.062 1199.33 468.359 1191.89 481.204L1196.21 483.71L1200.54 486.217C1209.01 471.6 1213.15 454.51 1213.15 435.131H1208.15ZM1196.21 483.71L1191.88 481.213C1184.56 493.912 1173.74 503.81 1159.22 510.892L1161.41 515.386L1163.6 519.88C1179.76 512.001 1192.15 500.781 1200.55 486.207L1196.21 483.71ZM1161.41 515.386L1159.24 510.881C1144.76 517.857 1126.7 521.466 1104.88 521.466V526.466V531.466C1127.75 531.466 1147.39 527.689 1163.58 519.891L1161.41 515.386ZM1104.88 526.466V521.466H1027.18V526.466V531.466H1104.88V526.466ZM1027.18 526.466H1032.18V482.716H1027.18H1022.18V526.466H1027.18ZM1027.18 482.716V487.716H1097.78V482.716V477.716H1027.18V482.716ZM1097.78 482.716V487.716C1111.25 487.716 1122.69 485.869 1131.86 481.908L1129.88 477.318L1127.9 472.728C1120.4 475.965 1110.44 477.716 1097.78 477.716V482.716ZM1129.88 477.318L1131.9 481.889C1141.08 477.822 1148.12 471.795 1152.69 463.735L1148.34 461.267L1144 458.799C1140.62 464.755 1135.34 469.428 1127.85 472.747L1129.88 477.318ZM1148.34 461.267L1152.68 463.754C1157.29 455.722 1159.45 446.101 1159.45 435.131H1154.45H1149.45C1149.45 444.804 1147.55 452.608 1144.01 458.78L1148.34 461.267ZM1154.45 435.131H1159.45C1159.45 424.154 1157.29 414.466 1152.71 406.272L1148.34 408.71L1143.98 411.148C1147.55 417.538 1149.45 425.463 1149.45 435.131H1154.45ZM1148.34 408.71L1152.72 406.296C1148.09 397.886 1141.03 391.59 1131.81 387.397L1129.74 391.949L1127.67 396.501C1135.11 399.883 1140.46 404.762 1143.97 411.124L1148.34 408.71ZM1129.74 391.949L1131.85 387.417C1122.63 383.123 1111.09 381.125 1097.49 381.125V386.125V391.125C1110.22 391.125 1120.17 393.01 1127.62 396.481L1129.74 391.949ZM1097.49 386.125V381.125H1049.2V386.125V391.125H1097.49V386.125ZM1049.2 386.125H1044.2V633H1049.2H1054.2V386.125H1049.2ZM1049.2 633V628H996.498V633V638H1049.2V633ZM1146.78 501.182L1142.39 503.579L1214.41 635.397L1218.8 633L1223.19 630.603L1151.17 498.785L1146.78 501.182ZM1218.8 633V628H1159.99V633V638H1218.8V633ZM1159.99 633L1164.4 630.636L1093.66 498.818L1089.25 501.182L1084.85 503.546L1155.59 635.364L1159.99 633ZM1089.25 501.182V506.182H1146.78V501.182V496.182H1089.25V501.182ZM1267.03 623.199L1264.46 627.486L1267.03 623.199ZM1230.67 583.852L1226.2 586.108L1226.21 586.118L1226.21 586.128L1230.67 583.852ZM1230.67 465.528L1226.21 463.262L1226.2 463.272L1226.2 463.282L1230.67 465.528ZM1267.03 426.04L1269.6 430.327L1267.03 426.04ZM1377.82 426.04L1375.25 430.327L1377.82 426.04ZM1414.05 465.528L1409.58 467.774L1409.58 467.784L1409.59 467.794L1414.05 465.528ZM1414.05 583.852L1409.59 581.576L1409.59 581.586L1409.58 581.596L1414.05 583.852ZM1377.82 623.199L1375.25 618.911L1377.82 623.199ZM1351.69 586.551L1354.85 590.423L1354.87 590.412L1354.88 590.4L1351.69 586.551ZM1369.02 560.699L1364.31 559.007L1364.31 559.025L1364.3 559.043L1369.02 560.699ZM1369.02 488.398L1364.3 490.04L1364.3 490.065L1364.31 490.09L1369.02 488.398ZM1351.69 462.403L1354.88 458.555L1351.69 462.403ZM1293.17 462.403L1290 458.536L1289.99 458.545L1289.97 458.555L1293.17 462.403ZM1275.69 488.398L1270.98 486.719L1270.98 486.73L1270.98 486.742L1275.69 488.398ZM1275.69 560.699L1270.98 562.354L1270.98 562.373L1270.99 562.391L1275.69 560.699ZM1293.17 586.551L1289.97 590.4L1290 590.421L1290.02 590.442L1293.17 586.551ZM1322.43 637.261V632.261C1301.87 632.261 1284.33 627.746 1269.6 618.911L1267.03 623.199L1264.46 627.486C1280.98 637.401 1300.37 642.261 1322.43 642.261V637.261ZM1267.03 623.199L1269.6 618.911C1254.81 610.037 1243.33 597.633 1235.12 581.576L1230.67 583.852L1226.21 586.128C1235.24 603.783 1248 617.611 1264.46 627.486L1267.03 623.199ZM1230.67 583.852L1235.13 581.596C1227.02 565.562 1222.88 546.666 1222.88 524.761H1217.88H1212.88C1212.88 547.933 1217.26 568.43 1226.2 586.108L1230.67 583.852ZM1217.88 524.761H1222.88C1222.88 502.858 1227.02 483.909 1235.13 467.774L1230.67 465.528L1226.2 463.282C1217.27 481.049 1212.88 501.589 1212.88 524.761H1217.88ZM1230.67 465.528L1235.12 467.794C1243.33 451.643 1254.82 439.197 1269.6 430.327L1267.03 426.04L1264.46 421.752C1247.99 431.632 1235.23 445.513 1226.21 463.262L1230.67 465.528ZM1267.03 426.04L1269.6 430.327C1284.33 421.492 1301.87 416.977 1322.43 416.977V411.977V406.977C1300.37 406.977 1280.98 411.837 1264.46 421.752L1267.03 426.04ZM1322.43 411.977V416.977C1342.98 416.977 1360.53 421.492 1375.25 430.327L1377.82 426.04L1380.4 421.752C1363.87 411.837 1344.48 406.977 1322.43 406.977V411.977ZM1377.82 426.04L1375.25 430.327C1390.03 439.194 1401.46 451.633 1409.58 467.774L1414.05 465.528L1418.51 463.282C1409.58 445.522 1396.87 431.635 1380.4 421.752L1377.82 426.04ZM1414.05 465.528L1409.59 467.794C1417.79 483.924 1421.97 502.866 1421.97 524.761H1426.97H1431.97C1431.97 501.581 1427.54 481.034 1418.5 463.262L1414.05 465.528ZM1426.97 524.761H1421.97C1421.97 546.658 1417.79 565.547 1409.59 581.576L1414.05 583.852L1418.5 586.128C1427.54 568.445 1431.97 547.941 1431.97 524.761H1426.97ZM1414.05 583.852L1409.58 581.596C1401.47 597.643 1390.04 610.04 1375.25 618.911L1377.82 623.199L1380.4 627.486C1396.86 617.608 1409.58 603.774 1418.51 586.108L1414.05 583.852ZM1377.82 623.199L1375.25 618.911C1360.53 627.746 1342.98 632.261 1322.43 632.261V637.261V642.261C1344.48 642.261 1363.87 637.401 1380.4 627.486L1377.82 623.199ZM1322.71 596.068V601.068C1335.23 601.068 1346.06 597.606 1354.85 590.423L1351.69 586.551L1348.52 582.679C1341.79 588.186 1333.3 591.068 1322.71 591.068V596.068ZM1351.69 586.551L1354.88 590.4C1363.43 583.307 1369.69 573.888 1373.74 562.354L1369.02 560.699L1364.3 559.043C1360.77 569.1 1355.47 576.917 1348.5 582.702L1351.69 586.551ZM1369.02 560.699L1373.72 562.391C1377.83 550.975 1379.84 538.365 1379.84 524.619H1374.84H1369.84C1369.84 537.388 1367.97 548.831 1364.31 559.007L1369.02 560.699ZM1374.84 524.619H1379.84C1379.84 510.783 1377.83 498.125 1373.72 486.706L1369.02 488.398L1364.31 490.09C1367.97 500.262 1369.84 511.751 1369.84 524.619H1374.84ZM1369.02 488.398L1373.74 486.755C1369.7 475.129 1363.44 465.655 1354.88 458.555L1351.69 462.403L1348.5 466.252C1355.46 472.03 1360.76 479.886 1364.3 490.04L1369.02 488.398ZM1351.69 462.403L1354.88 458.555C1346.09 451.264 1335.25 447.744 1322.71 447.744V452.744V457.744C1333.28 457.744 1341.76 460.664 1348.5 466.252L1351.69 462.403ZM1322.71 452.744V447.744C1309.92 447.744 1298.89 451.247 1290 458.536L1293.17 462.403L1296.33 466.271C1303.16 460.681 1311.83 457.744 1322.71 457.744V452.744ZM1293.17 462.403L1289.97 458.555C1281.42 465.647 1275.12 475.108 1270.98 486.719L1275.69 488.398L1280.4 490.077C1284.03 479.907 1289.38 472.038 1296.36 466.252L1293.17 462.403ZM1275.69 488.398L1270.98 486.742C1266.97 498.15 1265.01 510.796 1265.01 524.619H1270.01H1275.01C1275.01 511.739 1276.84 500.236 1280.41 490.053L1275.69 488.398ZM1270.01 524.619H1265.01C1265.01 538.353 1266.97 550.95 1270.98 562.354L1275.69 560.699L1280.41 559.043C1276.84 548.857 1275.01 537.401 1275.01 524.619H1270.01ZM1275.69 560.699L1270.99 562.391C1275.13 573.91 1281.43 583.315 1289.97 590.4L1293.17 586.551L1296.36 582.702C1289.37 576.908 1284.02 569.079 1280.4 559.007L1275.69 560.699ZM1293.17 586.551L1290.02 590.442C1298.92 597.623 1309.94 601.068 1322.71 601.068V596.068V591.068C1311.81 591.068 1303.13 588.168 1296.31 582.661L1293.17 586.551Z" fill="white" mask="url(#path-5-outside-2_0_1)"/>
<path d="M1444.77 714.818V414.818H1495.34V450.898H1498.32C1500.97 445.595 1504.72 439.96 1509.54 433.994C1514.37 427.934 1520.91 422.773 1529.15 418.511C1537.39 414.155 1547.9 411.977 1560.68 411.977C1577.54 411.977 1592.74 416.286 1606.28 424.903C1619.91 433.426 1630.71 446.068 1638.66 462.83C1646.71 479.496 1650.74 499.951 1650.74 524.193C1650.74 548.152 1646.81 568.511 1638.95 585.273C1631.09 602.034 1620.39 614.818 1606.85 623.625C1593.3 632.432 1577.96 636.835 1560.82 636.835C1548.32 636.835 1537.95 634.752 1529.72 630.585C1521.48 626.419 1514.85 621.4 1509.83 615.528C1504.9 609.562 1501.07 603.928 1498.32 598.625H1496.19V714.818H1444.77ZM1495.2 523.909C1495.2 538.019 1497.19 550.377 1501.16 560.983C1505.24 571.589 1511.06 579.875 1518.64 585.841C1526.31 591.712 1535.59 594.648 1546.48 594.648C1557.84 594.648 1567.36 591.617 1575.03 585.557C1582.7 579.402 1588.47 571.021 1592.36 560.415C1596.33 549.714 1598.32 537.545 1598.32 523.909C1598.32 510.367 1596.38 498.341 1592.5 487.83C1588.62 477.318 1582.84 469.08 1575.17 463.114C1567.5 457.148 1557.93 454.165 1546.48 454.165C1535.49 454.165 1526.16 457.053 1518.49 462.83C1510.82 468.606 1505 476.703 1501.02 487.119C1497.14 497.536 1495.2 509.799 1495.2 523.909ZM1670.77 633V414.818H1722.19V633H1670.77ZM1696.62 383.852C1688.48 383.852 1681.47 381.153 1675.6 375.756C1669.73 370.263 1666.79 363.682 1666.79 356.011C1666.79 348.246 1669.73 341.665 1675.6 336.267C1681.47 330.775 1688.48 328.028 1696.62 328.028C1704.86 328.028 1711.87 330.775 1717.65 336.267C1723.52 341.665 1726.45 348.246 1726.45 356.011C1726.45 363.682 1723.52 370.263 1717.65 375.756C1711.87 381.153 1704.86 383.852 1696.62 383.852Z" fill="black"/>
</svg>
